<?xml version="1.0" standalone="no"?>
<svg viewBox="0 0 200 200" xmlns="http://www.w3.org/2000/svg">
  <path fill="#FF0066" d="M41.5,-21.5C46.5,1.7,38.1,21.3,21.7,34.2C5.4,47.1,-19,53.4,-35.1,43C-51.2,32.5,-59,5.4,-51.7,-21C-44.5,-47.4,-22.3,-73.1,-2,-72.4C18.3,-71.8,36.6,-44.8,41.5,-21.5Z" transform="translate(100 100)" />
</svg>

<svg viewBox="0 0 200 200" xmlns="http://www.w3.org/2000/svg">
  <path fill="#FF0066" d="M35.9,-51C42.5,-37.3,40.8,-22.1,47.4,-5.3C54,11.5,68.9,29.9,65.6,40.1C62.4,50.2,41,52.1,24,52.5C7,52.8,-5.7,51.6,-23.2,50.8C-40.8,50.1,-63.2,49.7,-73.4,39C-83.6,28.3,-81.5,7.1,-73.9,-9.1C-66.4,-25.3,-53.3,-36.6,-40,-49.1C-26.8,-61.5,-13.4,-75.1,0.6,-75.9C14.7,-76.7,29.4,-64.6,35.9,-51Z" transform="translate(100 100)" />
</svg>

<svg viewBox="0 0 200 187" xmlns="http://www.w3.org/2000/svg" xmlns:xlink="http://www.w3.org/1999/xlink">
    <mask id="mask0" mask-type="alpha">
        <path d="M190.312 36.4879C206.582 62.1187 201.309 102.826 182.328 134.186C163.346 165.547 
        130.807 187.559 100.226 186.353C69.6454 185.297 41.0228 161.023 21.7403 129.362C2.45775 
        97.8511 -7.48481 59.1033 6.67581 34.5279C20.9871 10.1032 59.7028 -0.149132 97.9666 
        0.00163737C136.23 0.303176 174.193 10.857 190.312 36.4879Z"/>
    </mask>
    <g mask="url(#mask0)">
        <path d="M190.312 36.4879C206.582 62.1187 201.309 102.826 182.328 134.186C163.346 
        165.547 130.807 187.559 100.226 186.353C69.6454 185.297 41.0228 161.023 21.7403 
        129.362C2.45775 97.8511 -7.48481 59.1033 6.67581 34.5279C20.9871 10.1032 59.7028 
        -0.149132 97.9666 0.00163737C136.23 0.303176 174.193 10.857 190.312 36.4879Z"/>
        <image href=""/>
    </g>
</svg>

